<svg xmlns="http://www.w3.org/2000/svg" xmlns:xlink="http://www.w3.org/1999/xlink" width="200" zoomAndPan="magnify" viewBox="0 0 150 74.999997" height="100" preserveAspectRatio="xMidYMid meet" version="1.0"><defs><clipPath id="41d368348b"><path d="M 40.851562 26.699219 L 109.101562 26.699219 L 109.101562 48.449219 L 40.851562 48.449219 Z M 40.851562 26.699219 " clip-rule="nonzero"/></clipPath><clipPath id="c03da4473e"><path d="M 43.375 28.277344 L 106.375 28.277344 L 106.375 47.027344 L 43.375 47.027344 Z M 43.375 28.277344 " clip-rule="nonzero"/></clipPath><clipPath id="45a49aa64d"><path d="M 43.394531 28.277344 L 106.375 28.277344 L 106.375 47.027344 L 43.394531 47.027344 Z M 43.394531 28.277344 " clip-rule="nonzero"/></clipPath><clipPath id="a7e6ecb9d7"><path d="M 52.574219 28.277344 L 97.179688 28.277344 C 99.613281 28.277344 101.949219 29.265625 103.671875 31.023438 C 105.394531 32.78125 106.359375 35.167969 106.359375 37.652344 C 106.359375 40.140625 105.394531 42.523438 103.671875 44.28125 C 101.949219 46.039062 99.613281 47.027344 97.179688 47.027344 L 52.574219 47.027344 C 50.140625 47.027344 47.804688 46.039062 46.082031 44.28125 C 44.359375 42.523438 43.394531 40.140625 43.394531 37.652344 C 43.394531 35.167969 44.359375 32.78125 46.082031 31.023438 C 47.804688 29.265625 50.140625 28.277344 52.574219 28.277344 " clip-rule="nonzero"/></clipPath><clipPath id="7a6bc2e96c"><path d="M 43.375 29.324219 L 59.875 29.324219 L 59.875 45.824219 L 43.375 45.824219 Z M 43.375 29.324219 " clip-rule="nonzero"/></clipPath><clipPath id="68f48a77dd"><path d="M 43.375 29.324219 L 59.875 29.324219 L 59.875 45.824219 L 43.375 45.824219 Z M 43.375 29.324219 " clip-rule="nonzero"/></clipPath><clipPath id="c08e5dd0b0"><path d="M 51.625 29.324219 C 47.070312 29.324219 43.375 33.019531 43.375 37.574219 C 43.375 42.128906 47.070312 45.824219 51.625 45.824219 C 56.183594 45.824219 59.875 42.128906 59.875 37.574219 C 59.875 33.019531 56.183594 29.324219 51.625 29.324219 " clip-rule="nonzero"/></clipPath><clipPath id="7c76da4f98"><path d="M 51.550781 29.324219 L 68.050781 29.324219 L 68.050781 45.824219 L 51.550781 45.824219 Z M 51.550781 29.324219 " clip-rule="nonzero"/></clipPath><clipPath id="f125d341d8"><path d="M 51.550781 29.324219 L 68.050781 29.324219 L 68.050781 45.824219 L 51.550781 45.824219 Z M 51.550781 29.324219 " clip-rule="nonzero"/></clipPath><clipPath id="b6f2a7240e"><path d="M 59.800781 29.324219 C 55.246094 29.324219 51.550781 33.019531 51.550781 37.574219 C 51.550781 42.128906 55.246094 45.824219 59.800781 45.824219 C 64.359375 45.824219 68.050781 42.128906 68.050781 37.574219 C 68.050781 33.019531 64.359375 29.324219 59.800781 29.324219 " clip-rule="nonzero"/></clipPath><clipPath id="ba27890f5d"><path d="M 58.648438 29.324219 L 75.148438 29.324219 L 75.148438 45.824219 L 58.648438 45.824219 Z M 58.648438 29.324219 " clip-rule="nonzero"/></clipPath><clipPath id="c83ba98168"><path d="M 58.648438 29.324219 L 75.148438 29.324219 L 75.148438 45.824219 L 58.648438 45.824219 Z M 58.648438 29.324219 " clip-rule="nonzero"/></clipPath><clipPath id="948ab73eb0"><path d="M 66.898438 29.324219 C 62.34375 29.324219 58.648438 33.019531 58.648438 37.574219 C 58.648438 42.128906 62.34375 45.824219 66.898438 45.824219 C 71.453125 45.824219 75.148438 42.128906 75.148438 37.574219 C 75.148438 33.019531 71.453125 29.324219 66.898438 29.324219 " clip-rule="nonzero"/></clipPath><clipPath id="f682f935da"><path d="M 66.824219 29.324219 L 83.324219 29.324219 L 83.324219 45.824219 L 66.824219 45.824219 Z M 66.824219 29.324219 " clip-rule="nonzero"/></clipPath><clipPath id="70348ece10"><path d="M 66.824219 29.324219 L 83.324219 29.324219 L 83.324219 45.824219 L 66.824219 45.824219 Z M 66.824219 29.324219 " clip-rule="nonzero"/></clipPath><clipPath id="36102a06e5"><path d="M 75.074219 29.324219 C 70.519531 29.324219 66.824219 33.019531 66.824219 37.574219 C 66.824219 42.128906 70.519531 45.824219 75.074219 45.824219 C 79.628906 45.824219 83.324219 42.128906 83.324219 37.574219 C 83.324219 33.019531 79.628906 29.324219 75.074219 29.324219 " clip-rule="nonzero"/></clipPath><clipPath id="146eae4e05"><path d="M 75 29.324219 L 91.5 29.324219 L 91.5 45.824219 L 75 45.824219 Z M 75 29.324219 " clip-rule="nonzero"/></clipPath><clipPath id="ce508765e2"><path d="M 75 29.324219 L 91.5 29.324219 L 91.5 45.824219 L 75 45.824219 Z M 75 29.324219 " clip-rule="nonzero"/></clipPath><clipPath id="9c6ae3f709"><path d="M 83.25 29.324219 C 78.695312 29.324219 75 33.019531 75 37.574219 C 75 42.128906 78.695312 45.824219 83.25 45.824219 C 87.804688 45.824219 91.5 42.128906 91.5 37.574219 C 91.5 33.019531 87.804688 29.324219 83.25 29.324219 " clip-rule="nonzero"/></clipPath><clipPath id="2ca8668a38"><path d="M 83.175781 29.324219 L 99.675781 29.324219 L 99.675781 45.824219 L 83.175781 45.824219 Z M 83.175781 29.324219 " clip-rule="nonzero"/></clipPath><clipPath id="aeee4167ed"><path d="M 83.175781 29.324219 L 99.675781 29.324219 L 99.675781 45.824219 L 83.175781 45.824219 Z M 83.175781 29.324219 " clip-rule="nonzero"/></clipPath><clipPath id="6222a52f8b"><path d="M 91.425781 29.324219 C 86.871094 29.324219 83.175781 33.019531 83.175781 37.574219 C 83.175781 42.128906 86.871094 45.824219 91.425781 45.824219 C 95.980469 45.824219 99.675781 42.128906 99.675781 37.574219 C 99.675781 33.019531 95.980469 29.324219 91.425781 29.324219 " clip-rule="nonzero"/></clipPath><clipPath id="4e08153a41"><path d="M 91.351562 29.324219 L 107.851562 29.324219 L 107.851562 45.824219 L 91.351562 45.824219 Z M 91.351562 29.324219 " clip-rule="nonzero"/></clipPath><clipPath id="96245825f7"><path d="M 91.351562 29.324219 L 107.851562 29.324219 L 107.851562 45.824219 L 91.351562 45.824219 Z M 91.351562 29.324219 " clip-rule="nonzero"/></clipPath><clipPath id="941c58456e"><path d="M 99.601562 29.324219 C 95.046875 29.324219 91.351562 33.019531 91.351562 37.574219 C 91.351562 42.128906 95.046875 45.824219 99.601562 45.824219 C 104.15625 45.824219 107.851562 42.128906 107.851562 37.574219 C 107.851562 33.019531 104.15625 29.324219 99.601562 29.324219 " clip-rule="nonzero"/></clipPath></defs><g clip-path="url(#41d368348b)"><path fill="#805c4d" d="M 51.640625 26.699219 L 98.308594 26.699219 C 104.269531 26.699219 109.101562 31.570312 109.101562 37.574219 C 109.101562 43.582031 104.269531 48.449219 98.308594 48.449219 L 51.640625 48.449219 C 45.683594 48.449219 40.851562 43.582031 40.851562 37.574219 C 40.851562 31.570312 45.683594 26.699219 51.640625 26.699219 " fill-opacity="1" fill-rule="nonzero"/></g><g clip-path="url(#c03da4473e)"><path fill="#805c4d" d="M 52.574219 28.277344 L 97.179688 28.277344 C 99.613281 28.277344 101.949219 29.265625 103.671875 31.023438 C 105.394531 32.78125 106.359375 35.167969 106.359375 37.652344 C 106.359375 40.140625 105.394531 42.523438 103.671875 44.28125 C 101.949219 46.039062 99.613281 47.027344 97.179688 47.027344 L 52.574219 47.027344 C 50.140625 47.027344 47.804688 46.039062 46.082031 44.28125 C 44.359375 42.523438 43.394531 40.140625 43.394531 37.652344 C 43.394531 35.167969 44.359375 32.78125 46.082031 31.023438 C 47.804688 29.265625 50.140625 28.277344 52.574219 28.277344 " fill-opacity="1" fill-rule="nonzero"/></g><g clip-path="url(#45a49aa64d)"><g clip-path="url(#a7e6ecb9d7)"><path stroke-linecap="butt" transform="matrix(0.747082, 0, 0, 0.762873, 43.393336, 28.278384)" fill="none" stroke-linejoin="miter" d="M 12.288995 -0.00136366 L 71.99528 -0.00136366 C 75.252747 -0.00136366 78.379497 1.294109 80.685344 3.598308 C 82.991191 5.902508 84.282675 9.031098 84.282675 12.2877 C 84.282675 15.549423 82.991191 18.672893 80.685344 20.977093 C 78.379497 23.281292 75.252747 24.576764 71.99528 24.576764 L 12.288995 24.576764 C 9.031528 24.576764 5.904778 23.281292 3.598931 20.977093 C 1.293083 18.672893 0.00159955 15.549423 0.00159955 12.2877 C 0.00159955 9.031098 1.293083 5.902508 3.598931 3.598308 C 5.904778 1.294109 9.031528 -0.00136366 12.288995 -0.00136366 " stroke="#000000" stroke-width="2" stroke-opacity="1" stroke-miterlimit="4"/></g></g><g clip-path="url(#7a6bc2e96c)"><path fill="#805c4d" d="M 51.625 29.324219 C 47.070312 29.324219 43.375 33.019531 43.375 37.574219 C 43.375 42.128906 47.070312 45.824219 51.625 45.824219 C 56.183594 45.824219 59.875 42.128906 59.875 37.574219 C 59.875 33.019531 56.183594 29.324219 51.625 29.324219 " fill-opacity="1" fill-rule="nonzero"/></g><g clip-path="url(#68f48a77dd)"><g clip-path="url(#c08e5dd0b0)"><path stroke-linecap="butt" transform="matrix(0.756989, 0, 0, 0.756989, 43.37692, 29.324315)" fill="none" stroke-linejoin="miter" d="M 10.895903 -0.000127789 C 4.879056 -0.000127789 -0.0025367 4.881465 -0.0025367 10.898312 C -0.0025367 16.915159 4.879056 21.796752 10.895903 21.796752 C 16.917911 21.796752 21.794343 16.915159 21.794343 10.898312 C 21.794343 4.881465 16.917911 -0.000127789 10.895903 -0.000127789 " stroke="#000000" stroke-width="2" stroke-opacity="1" stroke-miterlimit="4"/></g></g><g clip-path="url(#7c76da4f98)"><path fill="#805c4d" d="M 59.800781 29.324219 C 55.246094 29.324219 51.550781 33.019531 51.550781 37.574219 C 51.550781 42.128906 55.246094 45.824219 59.800781 45.824219 C 64.359375 45.824219 68.050781 42.128906 68.050781 37.574219 C 68.050781 33.019531 64.359375 29.324219 59.800781 29.324219 " fill-opacity="1" fill-rule="nonzero"/></g><g clip-path="url(#f125d341d8)"><g clip-path="url(#b6f2a7240e)"><path stroke-linecap="butt" transform="matrix(0.756989, 0, 0, 0.756989, 51.552604, 29.324315)" fill="none" stroke-linejoin="miter" d="M 10.896033 -0.000127789 C 4.879186 -0.000127789 -0.00240735 4.881465 -0.00240735 10.898312 C -0.00240735 16.915159 4.879186 21.796752 10.896033 21.796752 C 16.91804 21.796752 21.794473 16.915159 21.794473 10.898312 C 21.794473 4.881465 16.91804 -0.000127789 10.896033 -0.000127789 " stroke="#000000" stroke-width="2" stroke-opacity="1" stroke-miterlimit="4"/></g></g><g clip-path="url(#ba27890f5d)"><path fill="#805c4d" d="M 66.898438 29.324219 C 62.34375 29.324219 58.648438 33.019531 58.648438 37.574219 C 58.648438 42.128906 62.34375 45.824219 66.898438 45.824219 C 71.453125 45.824219 75.148438 42.128906 75.148438 37.574219 C 75.148438 33.019531 71.453125 29.324219 66.898438 29.324219 " fill-opacity="1" fill-rule="nonzero"/></g><g clip-path="url(#c83ba98168)"><g clip-path="url(#948ab73eb0)"><path stroke-linecap="butt" transform="matrix(0.756989, 0, 0, 0.756989, 58.648635, 29.324315)" fill="none" stroke-linejoin="miter" d="M 10.898179 -0.000127789 C 4.881332 -0.000127789 -0.000260916 4.881465 -0.000260916 10.898312 C -0.000260916 16.915159 4.881332 21.796752 10.898179 21.796752 C 16.915026 21.796752 21.796619 16.915159 21.796619 10.898312 C 21.796619 4.881465 16.915026 -0.000127789 10.898179 -0.000127789 " stroke="#000000" stroke-width="2" stroke-opacity="1" stroke-miterlimit="4"/></g></g><g clip-path="url(#f682f935da)"><path fill="#805c4d" d="M 75.074219 29.324219 C 70.519531 29.324219 66.824219 33.019531 66.824219 37.574219 C 66.824219 42.128906 70.519531 45.824219 75.074219 45.824219 C 79.628906 45.824219 83.324219 42.128906 83.324219 37.574219 C 83.324219 33.019531 79.628906 29.324219 75.074219 29.324219 " fill-opacity="1" fill-rule="nonzero"/></g><g clip-path="url(#70348ece10)"><g clip-path="url(#36102a06e5)"><path stroke-linecap="butt" transform="matrix(0.756989, 0, 0, 0.756989, 66.824316, 29.324315)" fill="none" stroke-linejoin="miter" d="M 10.898312 -0.000127789 C 4.881465 -0.000127789 -0.000128394 4.881465 -0.000128394 10.898312 C -0.000128394 16.915159 4.881465 21.796752 10.898312 21.796752 C 16.915159 21.796752 21.796752 16.915159 21.796752 10.898312 C 21.796752 4.881465 16.915159 -0.000127789 10.898312 -0.000127789 " stroke="#000000" stroke-width="2" stroke-opacity="1" stroke-miterlimit="4"/></g></g><g clip-path="url(#146eae4e05)"><path fill="#805c4d" d="M 83.25 29.324219 C 78.695312 29.324219 75 33.019531 75 37.574219 C 75 42.128906 78.695312 45.824219 83.25 45.824219 C 87.804688 45.824219 91.5 42.128906 91.5 37.574219 C 91.5 33.019531 87.804688 29.324219 83.25 29.324219 " fill-opacity="1" fill-rule="nonzero"/></g><g clip-path="url(#ce508765e2)"><g clip-path="url(#9c6ae3f709)"><path stroke-linecap="butt" transform="matrix(0.756989, 0, 0, 0.756989, 74.999997, 29.324315)" fill="none" stroke-linejoin="miter" d="M 10.898444 -0.000127789 C 4.881597 -0.000127789 0.0000041282 4.881465 0.0000041282 10.898312 C 0.0000041282 16.915159 4.881597 21.796752 10.898444 21.796752 C 16.915291 21.796752 21.796884 16.915159 21.796884 10.898312 C 21.796884 4.881465 16.915291 -0.000127789 10.898444 -0.000127789 " stroke="#000000" stroke-width="2" stroke-opacity="1" stroke-miterlimit="4"/></g></g><g clip-path="url(#2ca8668a38)"><path fill="#805c4d" d="M 91.425781 29.324219 C 86.871094 29.324219 83.175781 33.019531 83.175781 37.574219 C 83.175781 42.128906 86.871094 45.824219 91.425781 45.824219 C 95.980469 45.824219 99.675781 42.128906 99.675781 37.574219 C 99.675781 33.019531 95.980469 29.324219 91.425781 29.324219 " fill-opacity="1" fill-rule="nonzero"/></g><g clip-path="url(#aeee4167ed)"><g clip-path="url(#6222a52f8b)"><path stroke-linecap="butt" transform="matrix(0.756989, 0, 0, 0.756989, 83.175678, 29.324315)" fill="none" stroke-linejoin="miter" d="M 10.898577 -0.000127789 C 4.88173 -0.000127789 0.00013665 4.881465 0.00013665 10.898312 C 0.00013665 16.915159 4.88173 21.796752 10.898577 21.796752 C 16.915424 21.796752 21.797017 16.915159 21.797017 10.898312 C 21.797017 4.881465 16.915424 -0.000127789 10.898577 -0.000127789 " stroke="#000000" stroke-width="2" stroke-opacity="1" stroke-miterlimit="4"/></g></g><g clip-path="url(#4e08153a41)"><path fill="#805c4d" d="M 99.601562 29.324219 C 95.046875 29.324219 91.351562 33.019531 91.351562 37.574219 C 91.351562 42.128906 95.046875 45.824219 99.601562 45.824219 C 104.15625 45.824219 107.851562 42.128906 107.851562 37.574219 C 107.851562 33.019531 104.15625 29.324219 99.601562 29.324219 " fill-opacity="1" fill-rule="nonzero"/></g><g clip-path="url(#96245825f7)"><g clip-path="url(#941c58456e)"><path stroke-linecap="butt" transform="matrix(0.756989, 0, 0, 0.756989, 91.351359, 29.324315)" fill="none" stroke-linejoin="miter" d="M 10.898709 -0.000127789 C 4.881862 -0.000127789 0.000269172 4.881465 0.000269172 10.898312 C 0.000269172 16.915159 4.881862 21.796752 10.898709 21.796752 C 16.915556 21.796752 21.797149 16.915159 21.797149 10.898312 C 21.797149 4.881465 16.915556 -0.000127789 10.898709 -0.000127789 " stroke="#000000" stroke-width="2" stroke-opacity="1" stroke-miterlimit="4"/></g></g></svg>